<?xml version="1.0" encoding="UTF-8"?>
<svg id="Layer_2" data-name="Layer 2" xmlns="http://www.w3.org/2000/svg" xmlns:xlink="http://www.w3.org/1999/xlink" viewBox="0 0 1707.22 387.44">
  <defs>
    <style>
      .cls-1 {
        fill: #1af0ff;
      }

      .cls-2 {
        fill: none;
      }

      .cls-3 {
        fill: url(#New_Gradient_Swatch-2);
      }

      .cls-4 {
        fill: url(#New_Gradient_Swatch);
      }
    </style>
    <linearGradient id="New_Gradient_Swatch" data-name="New Gradient Swatch" x1="1336.34" y1="302.85" x2="1727.11" y2="56.37" gradientUnits="userSpaceOnUse">
      <stop offset="0" stop-color="#3a53c1"/>
      <stop offset=".37" stop-color="#57b6dc"/>
      <stop offset=".79" stop-color="#56e4d6"/>
      <stop offset="1" stop-color="#78f4a6"/>
    </linearGradient>
    <linearGradient id="New_Gradient_Swatch-2" data-name="New Gradient Swatch" x1="111.27" y1="204.39" x2="283.67" y2="68.94" gradientTransform="translate(-53.25 53.55)" xlink:href="#New_Gradient_Swatch"/>
  </defs>
  <g id="Layer_1" data-name="Layer 1">
    <g>
      <g>
        <path d="M330.55,117.33c-18.06,0-32.04,6.79-41.95,20.35-9.91,13.57-14.86,32.48-14.86,56.73,0,50.46,18.93,75.69,56.81,75.69,15.89,0,35.14-3.97,57.73-11.92v40.24c-18.57,7.74-39.32,11.61-62.22,11.61-32.92,0-58.1-9.98-75.54-29.95-17.44-19.97-26.16-48.63-26.16-85.98,0-23.53,4.28-44.14,12.85-61.84,8.56-17.7,20.87-31.27,36.92-40.71,16.04-9.44,34.85-14.16,56.42-14.16s44.06,5.32,66.25,15.94l-15.48,39.01c-8.46-4.02-16.98-7.53-25.54-10.53-8.57-2.99-16.98-4.49-25.23-4.49Z"/>
        <path d="M463.12,306.94h-47.21V66.1h47.21v240.85Z"/>
        <path d="M493.84,89.16c0-15.37,8.56-23.06,25.69-23.06s25.69,7.69,25.69,23.06c0,7.33-2.14,13.03-6.42,17.1-4.28,4.08-10.71,6.11-19.27,6.11-17.13,0-25.69-7.74-25.69-23.22ZM543.06,306.94h-47.21v-173.05h47.21v173.05Z"/>
        <path d="M735.53,306.94h-47.21v-101.07c0-12.49-2.22-21.85-6.66-28.09-4.44-6.24-11.51-9.37-21.21-9.37-13.21,0-22.75,4.41-28.64,13.23-5.88,8.82-8.82,23.45-8.82,43.88v81.42h-47.21v-173.05h36.06l6.35,22.13h2.63c5.26-8.36,12.51-14.68,21.75-18.96,9.23-4.28,19.73-6.42,31.5-6.42,20.12,0,35.39,5.44,45.82,16.33,10.42,10.89,15.63,26.6,15.63,47.13v112.84Z"/>
        <path d="M765.32,89.16c0-15.37,8.56-23.06,25.69-23.06s25.69,7.69,25.69,23.06c0,7.33-2.14,13.03-6.42,17.1-4.28,4.08-10.71,6.11-19.27,6.11-17.13,0-25.69-7.74-25.69-23.22ZM814.54,306.94h-47.21v-173.05h47.21v173.05Z"/>
        <path d="M917.54,310.04c-53.87,0-80.8-29.56-80.8-88.69,0-29.41,7.33-51.88,21.98-67.41,14.65-15.53,35.65-23.3,63-23.3,20.02,0,37.97,3.92,53.87,11.76l-13.93,36.53c-7.43-2.99-14.34-5.44-20.74-7.35-6.4-1.91-12.8-2.86-19.19-2.86-24.56,0-36.84,17.44-36.84,52.32s12.28,50.77,36.84,50.77c9.08,0,17.49-1.21,25.23-3.64,7.74-2.42,15.48-6.22,23.22-11.38v40.4c-7.64,4.85-15.35,8.2-23.14,10.06-7.79,1.86-17.62,2.79-29.49,2.79Z"/>
        <path d="M1103.35,306.94l-9.13-23.53h-1.24c-7.95,10.01-16.12,16.95-24.54,20.82-8.41,3.87-19.37,5.8-32.89,5.8-16.62,0-29.7-4.75-39.24-14.24-9.55-9.49-14.32-23.01-14.32-40.55s6.42-31.91,19.27-40.63c12.85-8.72,32.22-13.54,58.12-14.47l30.03-.93v-7.58c0-17.54-8.98-26.31-26.93-26.31-13.83,0-30.08,4.18-48.76,12.54l-15.63-31.89c19.91-10.42,42-15.63,66.25-15.63s41.02,5.06,53.4,15.17c12.38,10.11,18.57,25.49,18.57,46.13v115.31h-32.97ZM1089.42,226.76l-18.27.62c-13.72.41-23.94,2.89-30.65,7.43-6.71,4.54-10.06,11.45-10.06,20.74,0,13.31,7.63,19.97,22.91,19.97,10.94,0,19.68-3.15,26.23-9.44,6.55-6.29,9.83-14.65,9.83-25.08v-14.24Z"/>
        <path d="M1215.34,306.94h-47.21V66.1h47.21v240.85Z"/>
      </g>
      <path class="cls-4" d="M1692.15,257.31c10.05-19.17,15.08-42.93,15.08-71.27,0-39.99-9.8-70.64-29.42-91.96-19.61-21.31-47.93-31.97-84.95-31.97s-65.45,10.57-85.28,31.72c-19.83,21.15-29.75,51.77-29.75,91.87,0,5.1.16,10.04.48,14.83h-38.35l-35.4,57.54c-4.52-6.71-9.43-14.02-14.72-21.89l-21.39-35.08c13.49-6.2,23.99-14.6,31.49-25.21,7.8-11.04,11.7-23.65,11.7-37.82,0-24.28-7.86-42.38-23.57-54.3-15.71-11.92-39.94-17.88-72.67-17.88h-70.2v240.93h51.09v-92.45h23.91l50.22,76.3-62.46,94.1h57.02l38.89-63.12,38.73,63.12h57.18l-62.79-94.1,44.41-66.74c4.47,22,13.15,40.04,26.08,54.05,19.78,21.42,48.12,32.14,85.03,32.14h3.79l44.16,54.05h65.42l-58.01-64.76c19.45-8.9,34.2-22.93,44.25-42.11ZM1296.3,107.76h15.49c16.48,0,28.65,2.42,36.5,7.25,7.85,4.84,11.78,12.97,11.78,24.39s-3.85,20-11.54,25.38c-7.69,5.38-19.61,8.08-35.76,8.08h-16.48v-65.09ZM1592.53,267.28c-20.33,0-35.6-6.81-45.81-20.43-10.22-13.62-15.33-33.89-15.33-60.81s5.16-47.21,15.49-60.89c10.33-13.68,25.65-20.52,45.98-20.52,40.54,0,60.81,27.14,60.81,81.41s-20.38,81.24-61.14,81.24Z"/>
      <path class="cls-2" d="M74.21,375.74c-.72,1.7-2.74,1.5-3.82,2.63-2.13,3.79-9.7,3.77-13.58,3.42-1.87-.27-2.19-.52-2.38-2.41-1.09-3.64-7.32-.5-9.46.71-3.48,2.97,6.43,3.5,8.05,3.71,9.02.07,18.65-.17,27-3.84,4.06-2.55-4.02-5.4-5.81-4.22Z"/>
      <path class="cls-2" d="M59.66,376.25c.54-.37-.7-.55-.62-1.06-.02-.49.51-1.02.78-1.12,1.45-.57,2.29-.76,3.96-.29.22.06.65.59.38,1.16-.82,1.71,3.72-.81,4.87-1.23.7-.42.61-.67-.37-1.24-4.16-.9-8.79-.93-12.59,1.15-2.52,1.89,2.38,2.27,3.59,2.63Z"/>
      <path class="cls-2" d="M74.21,375.74c-.72,1.7-2.74,1.5-3.82,2.63-2.13,3.79-9.7,3.77-13.58,3.42-1.87-.27-2.19-.52-2.38-2.41-1.09-3.64-7.32-.5-9.46.71-3.48,2.97,6.43,3.5,8.05,3.71,9.02.07,18.65-.17,27-3.84,4.06-2.55-4.02-5.4-5.81-4.22Z"/>
      <path class="cls-2" d="M59.66,376.25c.54-.37-.7-.55-.62-1.06-.02-.49.51-1.02.78-1.12,1.45-.57,2.29-.76,3.96-.29.22.06.65.59.38,1.16-.82,1.71,3.72-.81,4.87-1.23.7-.42.61-.67-.37-1.24-4.16-.9-8.79-.93-12.59,1.15-2.52,1.89,2.38,2.27,3.59,2.63Z"/>
      <path class="cls-3" d="M80.77,208.4c2.11,1.19,1.58,1.33,3.6-.43,30.05-26.61,77.8-22.84,104.2-54.73.48-.81-.05-1.09-.57-1.39-17.95-10.3-32.32-26.26-42.52-44.14-.39-.7-.87-1-1.64-.95-16.24-.01-32.49,0-48.73-.01-31.69.19-63.47-.47-95.11.12,11.86,42.9,42.25,79.62,80.77,101.53ZM174.16,347.6c-9.73-4.87-20.12-8.45-29.2-14.55-1.04-.69-1.12-.64-1.75.41-8.91,15.36-25.36,23.75-40.33,32.15-.04-.07-.08-.15-.11-.22,34.16-18.13,61.96-50.73,25.1-83.23-.1,2.94-.05,4.1-.07,6.66-.02,1.87.31,1.97,1.52,3.25,22.23,23.8-.09,47.56-17.81,61.21-8.27,6.37-12.3,8.75-33.6,18.33-.51.23-1.22.47-1.28.44-1.73.08-3.91-1.02-3.23.72.86,2.48-6.46,3.94-8.17,3.6,3.45-.68,4.55-1.02,6.07-2.31.43-.36.32-.96-.13-1.29-4.5-3.34-20.5-3.15-20.45,2.5.35,1.61-2.94,1.17-3.97,1.69-3.28.51-9.79,4.21-5.62,7.55,4.72,6.33,55.48,2.1,42.19-9.91,2.74-1.02,4.85-2.7,7.79-2.51,8.73.57,17.49.58,26.23.31,16.61-1.01,48.25-.88,60.7-12.17,4.14-4.18.75-10.57-3.87-12.63ZM56.06,373.62c3.8-2.08,8.43-2.05,12.59-1.15.98.57,1.07.81.37,1.24-1.15.42-5.69,2.93-4.87,1.23.27-.56-.16-1.09-.38-1.16-1.67-.47-2.51-.29-3.96.29-.26.1-.8.63-.78,1.12-.08.51,1.16.69.62,1.06-1.21-.36-6.11-.74-3.59-2.63ZM80.02,379.95c-8.36,3.67-17.98,3.91-27,3.84-1.62-.21-11.52-.74-8.05-3.71,2.14-1.21,8.37-4.35,9.46-.71.19,1.89.51,2.14,2.38,2.41,3.88.35,11.45.37,13.58-3.42,1.08-1.13,3.1-.93,3.82-2.63,1.79-1.19,9.87,1.66,5.81,4.22ZM98.88,242.35c-.98,2.79-1.26,5.67-.96,8.59,3.13,22.77,5.19,48.26-10.67,67-6.34,8.22-14,15.5-22.76,21.08-5.88,4.14-13.22,6.56-18.01,12.05-8.25,13.44,19.29,19.82,29.96,20.47.04-.08,8.69-3.68,19.41-8.99,13.79-6.83,37.46-27.88,35.5-43.88-3.35-9.5-5.26-19.46-5.43-29.52-1.14-24.79,1.18-51.37,17.79-71.11,20.56-11.21,41.47-23.28,56.89-41.41,10.84-12.49,18.37-27.53,22.7-43.43-.07-.02-.14-.04-.22-.06-33.46,83.33-103.27,59.01-124.22,109.2ZM161.54,107.75c.93,3.43,7.39,13.61,18.5,17.39,12.56,3.72,38.13,3.54,41.9-16.89.59-2.07.26-1.48-1.93-1.48-18.34-.07-39.45.1-57.7-.02-.52,0-.9.49-.77.99ZM241.88,49.15c-1.38-14-3.18-34.48-14.63-43.91-5.92-4.87-13.7-4.32-20.9-5.02-15.83-2.66-15.21,20.08-1.21,16.21,2.86-1.16,5.44-2.97,8.27-4.18,18.07-6.35,19.69,29.91,20.64,41.22.67,22.81-2.57,59.43-21.08,71.89-8.62,5.8-21.39,5.92-30.37,4.18-12.42-2.41-23.02-15.54-30.39-32.02-13.23-29.61-11.17-41.56-11.91-52.96.74-6.74,1.38-11.51,5.15-14.75,2.87-2.46,7.16-3.43,13.34-2.83,5.12.01,9-5.04,8.34-10-.44-6.08-7.66-9.47-12.78-6.4-2.76,1.39-5.5,2.85-8.14,4.45-9.68,5.5-13.71,16.78-13.67,27.48.14,34.62,13.29,69.98,39.69,93.56,6.3,5.63,13.9,10.01,21.12,14.43,1.11.77,1.79,1.26.88,2.5-16.91,23.94-47.51,30.29-73.68,39.17-27.78,8.35-56.78,31.49-52.22,63.48,1.94,16.63,12.11,31.32,25.65,40.81,1.53,1.15,1.74,1.07,2.18-.83.49-2.16.81-4.35,1.26-6.52.19-.9-.04-1.49-.76-2.08-3.3-2.73-7.87-6.04-12.62-14.52-24.69-44.03,25.16-72.79,62.77-79.58,25.46-5.19,54.27-24.71,64.96-50.39,2.13-4.16,5.57-7.45,8.36-11.16,5.28-6.7,9.53-14.02,12.86-21.88,7.69-18.98,10.16-40,8.9-60.36ZM216.23,6.71c0-.06-.01-.12-.02-.18,6.81-.82,13.39,5.46,14.68,11.85-2.53-6.43-7.56-11.08-14.66-11.67ZM139.61,28.12c3.21-4.62,7.77-6.14,7.77-6.14-3.39,2.29-4.93,4.12-6.58,6.62-1.45,2.2-3.68,5.71-3.95,8.7.15-4.27,1.81-7.81,2.76-9.18Z"/>
      <path class="cls-1" d="M108.5,354.53s17.3-14.99,22.61-27.82c5.25-12.69-1.98-26.23-1.98-26.23,0,0,9.29,11.72,3.67,27.36-4.27,11.9-24.8,26.57-24.3,26.69Z"/>
      <path class="cls-1" d="M96.91,268.79s-6.01-16.27-.46-28.85c8.02-18.17,23.71-26.02,52.21-36.03,55.1-19.36,72.57-65.66,72.57-65.66,0,0-21.41,38.36-52.04,51.87-21.54,9.51-61.27,14.64-78.04,41.74-9.85,15.92,5.76,36.94,5.76,36.94Z"/>
      <path class="cls-1" d="M84.9,273.92s-6.84-15.29-4.36-31.33c3.33-21.49,23.56-32.78,35.43-37.89,8.6-3.7,41.55-14.9,41.55-14.9,0,0-30.34,6.91-46.77,13.72-20.38,8.44-32.26,22.02-34.44,39.65-1.87,15.19,8.58,30.75,8.58,30.75Z"/>
    </g>
  </g>
</svg>