<?xml version="1.0" encoding="UTF-8"?>
<svg id="Layer_2" data-name="Layer 2" xmlns="http://www.w3.org/2000/svg" xmlns:xlink="http://www.w3.org/1999/xlink" viewBox="0 0 1482.85 322.67">
  <defs>
    <style>
      .cls-1 {
        fill: url(#New_Gradient_Swatch);
      }
    </style>
    <linearGradient id="New_Gradient_Swatch" data-name="New Gradient Swatch" x1="1111.97" y1="240.74" x2="1502.74" y2="-5.74" gradientUnits="userSpaceOnUse">
      <stop offset="0" stop-color="#3a53c1"/>
      <stop offset=".37" stop-color="#57b6dc"/>
      <stop offset=".79" stop-color="#56e4d6"/>
      <stop offset="1" stop-color="#78f4a6"/>
    </linearGradient>
  </defs>
  <g id="Layer_1" data-name="Layer 1">
    <g>
      <g>
        <path d="M106.18,55.22c-18.06,0-32.04,6.79-41.95,20.35-9.91,13.57-14.86,32.48-14.86,56.73,0,50.46,18.93,75.69,56.81,75.69,15.89,0,35.14-3.97,57.73-11.92v40.24c-18.57,7.74-39.32,11.61-62.22,11.61-32.92,0-58.1-9.98-75.54-29.95C8.72,198.01,0,169.35,0,131.99c0-23.53,4.28-44.14,12.85-61.84,8.56-17.7,20.87-31.27,36.92-40.71,16.04-9.44,34.85-14.16,56.42-14.16s44.06,5.32,66.25,15.94l-15.48,39.01c-8.46-4.02-16.98-7.53-25.54-10.53-8.57-2.99-16.98-4.49-25.23-4.49Z"/>
        <path d="M238.75,244.83h-47.21V3.99h47.21v240.85Z"/>
        <path d="M269.47,27.05c0-15.37,8.56-23.06,25.69-23.06s25.69,7.69,25.69,23.06c0,7.33-2.14,13.03-6.42,17.1-4.28,4.08-10.71,6.11-19.27,6.11-17.13,0-25.69-7.74-25.69-23.22ZM318.69,244.83h-47.21V71.78h47.21v173.05Z"/>
        <path d="M511.16,244.83h-47.21v-101.07c0-12.49-2.22-21.85-6.66-28.09-4.44-6.24-11.51-9.37-21.21-9.37-13.21,0-22.75,4.41-28.64,13.23-5.88,8.82-8.82,23.45-8.82,43.88v81.42h-47.21V71.78h36.06l6.35,22.13h2.63c5.26-8.36,12.51-14.68,21.75-18.96,9.23-4.28,19.73-6.42,31.5-6.42,20.12,0,35.39,5.44,45.82,16.33,10.42,10.89,15.63,26.6,15.63,47.13v112.84Z"/>
        <path d="M540.95,27.05c0-15.37,8.56-23.06,25.69-23.06s25.69,7.69,25.69,23.06c0,7.33-2.14,13.03-6.42,17.1-4.28,4.08-10.71,6.11-19.27,6.11-17.13,0-25.69-7.74-25.69-23.22ZM590.17,244.83h-47.21V71.78h47.21v173.05Z"/>
        <path d="M693.17,247.93c-53.87,0-80.8-29.56-80.8-88.69,0-29.41,7.33-51.88,21.98-67.41,14.65-15.53,35.65-23.3,63-23.3,20.02,0,37.97,3.92,53.87,11.76l-13.93,36.53c-7.43-2.99-14.34-5.44-20.74-7.35-6.4-1.91-12.8-2.86-19.19-2.86-24.56,0-36.84,17.44-36.84,52.32s12.28,50.77,36.84,50.77c9.08,0,17.49-1.21,25.23-3.64,7.74-2.42,15.48-6.22,23.22-11.38v40.4c-7.64,4.85-15.35,8.2-23.14,10.06-7.79,1.86-17.62,2.79-29.49,2.79Z"/>
        <path d="M878.98,244.83l-9.13-23.53h-1.24c-7.95,10.01-16.12,16.95-24.54,20.82-8.41,3.87-19.37,5.8-32.89,5.8-16.62,0-29.7-4.75-39.24-14.24-9.55-9.49-14.32-23.01-14.32-40.55s6.42-31.91,19.27-40.63c12.85-8.72,32.22-13.54,58.12-14.47l30.03-.93v-7.58c0-17.54-8.98-26.31-26.93-26.31-13.83,0-30.08,4.18-48.76,12.54l-15.63-31.89c19.91-10.42,42-15.63,66.25-15.63s41.02,5.06,53.4,15.17c12.38,10.11,18.57,25.49,18.57,46.13v115.31h-32.97ZM865.05,164.65l-18.27.62c-13.72.41-23.94,2.89-30.65,7.43-6.71,4.54-10.06,11.45-10.06,20.74,0,13.31,7.63,19.97,22.91,19.97,10.94,0,19.68-3.15,26.23-9.44,6.55-6.29,9.83-14.65,9.83-25.08v-14.24Z"/>
        <path d="M990.96,244.83h-47.21V3.99h47.21v240.85Z"/>
      </g>
      <path class="cls-1" d="M1467.78,195.2c10.05-19.17,15.08-42.93,15.08-71.27,0-39.99-9.8-70.64-29.42-91.96-19.61-21.31-47.93-31.97-84.95-31.97s-65.45,10.57-85.28,31.72c-19.83,21.15-29.75,51.77-29.75,91.87,0,5.1.16,10.04.48,14.83h-38.35l-35.4,57.54c-4.52-6.71-9.43-14.02-14.72-21.89l-21.39-35.08c13.49-6.2,23.99-14.6,31.49-25.21,7.8-11.04,11.7-23.65,11.7-37.82,0-24.28-7.86-42.38-23.57-54.3-15.71-11.92-39.94-17.88-72.67-17.88h-70.2v240.93h51.09v-92.45h23.91l50.22,76.3-62.46,94.1h57.02l38.89-63.12,38.73,63.12h57.18l-62.79-94.1,44.41-66.74c4.47,22,13.15,40.04,26.08,54.05,19.78,21.42,48.12,32.14,85.03,32.14h3.79l44.16,54.05h65.42l-58.01-64.76c19.45-8.9,34.2-22.93,44.25-42.11ZM1071.93,45.65h15.49c16.48,0,28.65,2.42,36.5,7.25,7.85,4.84,11.78,12.97,11.78,24.39s-3.85,20-11.54,25.38c-7.69,5.38-19.61,8.08-35.76,8.08h-16.48V45.65ZM1368.16,205.17c-20.33,0-35.6-6.81-45.81-20.43-10.22-13.62-15.33-33.89-15.33-60.81s5.16-47.21,15.49-60.89c10.33-13.68,25.65-20.52,45.98-20.52,40.54,0,60.81,27.14,60.81,81.41s-20.38,81.24-61.14,81.24Z"/>
    </g>
  </g>
</svg>