<?xml version="1.0" encoding="UTF-8"?>
<svg id="Layer_2" data-name="Layer 2" xmlns="http://www.w3.org/2000/svg" xmlns:xlink="http://www.w3.org/1999/xlink" viewBox="0 0 1031.22 1649.67">
  <defs>
    <style>
      .cls-1 {
        fill: #1af0ff;
      }

      .cls-2 {
        fill: none;
      }

      .cls-3 {
        fill: url(#New_Gradient_Swatch);
      }
    </style>
    <linearGradient id="New_Gradient_Swatch" data-name="New Gradient Swatch" x1="247.06" y1="1098.27" x2="981.12" y2="521.54" gradientUnits="userSpaceOnUse">
      <stop offset="0" stop-color="#3a53c1"/>
      <stop offset=".37" stop-color="#57b6dc"/>
      <stop offset=".79" stop-color="#56e4d6"/>
      <stop offset="1" stop-color="#78f4a6"/>
    </linearGradient>
  </defs>
  <g id="Layer_1" data-name="Layer 1">
    <path class="cls-2" d="M316,1599.86c-3.05,7.24-11.65,6.39-16.26,11.22-9.08,16.12-41.31,16.06-57.82,14.55-7.97-1.16-9.33-2.22-10.13-10.27-4.66-15.49-31.15-2.12-40.28,3.04-14.8,12.63,27.38,14.88,34.26,15.78,38.41.28,79.39-.73,114.97-16.36,17.27-10.87-17.1-23.01-24.74-17.96Z"/>
    <path class="cls-2" d="M254.02,1602.03c2.28-1.59-2.99-2.33-2.64-4.51-.09-2.09,2.18-4.33,3.3-4.77,6.17-2.44,9.74-3.23,16.87-1.23.95.27,2.78,2.52,1.63,4.92-3.5,7.27,15.83-3.43,20.72-5.22,2.99-1.8,2.61-2.85-1.56-5.27-17.72-3.84-37.43-3.96-53.62,4.88-10.71,8.06,10.14,9.67,15.3,11.19Z"/>
    <path class="cls-2" d="M627.54,93.61s-19.43,6.48-33.09,26.13c-4.25,6.12-11.87,22.28-11.87,41.61,0-13.22,10.35-29.55,16.96-39.56,7.02-10.63,13.57-18.44,28-28.17Z"/>
    <path class="cls-2" d="M316,1599.86c-3.05,7.24-11.65,6.39-16.26,11.22-9.08,16.12-41.31,16.06-57.82,14.55-7.97-1.16-9.33-2.22-10.13-10.27-4.66-15.49-31.15-2.12-40.28,3.04-14.8,12.63,27.38,14.88,34.26,15.78,38.41.28,79.39-.73,114.97-16.36,17.27-10.87-17.1-23.01-24.74-17.96Z"/>
    <path class="cls-2" d="M254.02,1602.03c2.28-1.59-2.99-2.33-2.64-4.51-.09-2.09,2.18-4.33,3.3-4.77,6.17-2.44,9.74-3.23,16.87-1.23.95.27,2.78,2.52,1.63,4.92-3.5,7.27,15.83-3.43,20.72-5.22,2.99-1.8,2.61-2.85-1.56-5.27-17.72-3.84-37.43-3.96-53.62,4.88-10.71,8.06,10.14,9.67,15.3,11.19Z"/>
    <path class="cls-2" d="M627.54,93.61s-19.43,6.48-33.09,26.13c-4.25,6.12-11.87,22.28-11.87,41.61,0-13.22,10.35-29.55,16.96-39.56,7.02-10.63,13.57-18.44,28-28.17Z"/>
    <path class="cls-3" d="M343.91,887.37c8.99,5.07,6.74,5.64,15.35-1.81,127.96-113.31,331.27-97.27,443.66-233.02,2.05-3.43-.19-4.64-2.42-5.9-76.45-43.86-137.62-111.81-181.04-187.94-1.68-2.99-3.69-4.26-6.99-4.06-69.15-.05-138.33,0-207.49-.05-134.93.8-270.25-1.99-404.97.5,50.51,182.65,179.89,339.03,343.91,432.29ZM741.55,1480.05c-41.44-20.75-85.68-35.96-124.34-61.96-4.42-2.92-4.76-2.73-7.45,1.76-37.96,65.4-107.99,101.14-171.71,136.9-.16-.31-.32-.62-.49-.93,145.47-77.19,263.82-216,106.9-354.38-.41,12.52-.2,17.47-.31,28.35-.08,7.97,1.33,8.37,6.46,13.83,94.65,101.36-.39,202.49-75.81,260.62-35.21,27.14-52.39,37.26-143.05,78.05-2.17.98-5.2,1.99-5.47,1.89-7.37.36-16.64-4.33-13.75,3.06,3.68,10.54-27.49,16.76-34.8,15.34,14.67-2.88,19.39-4.35,25.83-9.82,1.82-1.55,1.38-4.07-.54-5.5-19.16-14.23-87.27-13.39-87.1,10.63,1.48,6.84-12.5,4.98-16.88,7.21-13.95,2.19-41.69,17.93-23.93,32.13,20.12,26.95,236.23,8.94,179.63-42.19,11.68-4.35,20.63-11.49,33.16-10.68,37.17,2.42,74.47,2.48,111.7,1.33,70.74-4.29,205.45-3.76,258.45-51.83,17.65-17.78,3.2-44.99-16.47-53.8ZM238.71,1590.84c16.19-8.85,35.9-8.72,53.62-4.88,4.17,2.42,4.55,3.46,1.56,5.27-4.89,1.79-24.22,12.49-20.72,5.22,1.16-2.4-.68-4.65-1.63-4.92-7.13-2-10.7-1.22-16.87,1.23-1.12.44-3.39,2.69-3.3,4.77-.35,2.17,4.93,2.92,2.64,4.51-5.16-1.52-26.01-3.13-15.3-11.19ZM340.74,1617.82c-35.58,15.62-76.56,16.64-114.97,16.36-6.89-.89-49.06-3.15-34.26-15.78,9.13-5.15,35.62-18.53,40.28-3.04.8,8.05,2.16,9.11,10.13,10.27,16.51,1.5,48.74,1.57,57.82-14.55,4.61-4.83,13.22-3.98,16.26-11.22,7.64-5.05,42.01,7.09,24.74,17.96ZM421,1031.92c-4.19,11.88-5.38,24.16-4.08,36.59,13.31,96.93,22.11,205.47-45.44,285.29-26.98,34.98-59.61,65.99-96.9,89.77-25.03,17.64-56.31,27.92-76.68,51.32-35.12,57.21,82.13,84.38,127.59,87.15.16-.34,37-15.68,82.63-38.27,58.7-29.07,159.49-118.7,151.17-186.82-14.25-40.45-22.39-82.85-23.11-125.7-4.85-105.54,5.01-218.72,75.73-302.79,87.54-47.73,176.6-99.12,242.24-176.33,46.14-53.18,78.2-117.22,96.67-184.92-.31-.09-.61-.18-.92-.28-142.49,354.83-439.74,251.28-528.91,464.98ZM687.81,458.78c3.94,14.61,31.47,57.96,78.78,74.04,53.46,15.84,162.36,15.07,178.42-71.9,2.52-8.82,1.09-6.29-8.24-6.29-78.08-.28-167.96.43-245.7-.06-2.22-.01-3.84,2.08-3.27,4.22ZM1029.89,209.28c-5.86-59.59-13.56-146.82-62.29-186.97-25.19-20.76-58.35-18.4-89.01-21.38-67.42-11.33-64.78,85.48-5.17,69.02,12.18-4.93,23.18-12.63,35.2-17.82,76.93-27.04,83.85,127.37,87.9,175.5,2.84,97.11-10.95,253.05-89.74,306.11-36.7,24.71-91.08,25.21-129.33,17.79-52.87-10.25-98.04-66.17-129.39-136.35-56.33-126.07-47.57-176.96-50.7-225.48,3.13-28.7,5.87-49.02,21.92-62.8,12.21-10.48,30.48-14.6,56.78-12.07,21.79.06,38.33-21.45,35.52-42.57-1.89-25.89-32.63-40.32-54.42-27.24-11.77,5.9-23.41,12.13-34.67,18.94-41.2,23.43-58.37,71.45-58.19,117.01.59,147.4,56.61,297.98,168.98,398.38,26.81,23.95,59.17,42.62,89.94,61.44,4.74,3.27,7.64,5.38,3.74,10.65-71.98,101.92-202.28,128.97-313.72,166.79-118.29,35.55-241.76,134.08-222.34,270.29,8.26,70.79,51.58,133.35,109.2,173.78,6.5,4.88,7.42,4.54,9.27-3.55,2.1-9.19,3.44-18.54,5.36-27.77.79-3.81-.17-6.33-3.22-8.87-14.04-11.61-33.5-25.73-53.73-61.81-105.12-187.49,107.13-309.95,267.27-338.83,108.39-22.09,231.09-105.19,276.6-214.54,9.06-17.71,23.74-31.72,35.61-47.5,22.5-28.54,40.59-59.7,54.74-93.15,32.75-80.84,43.28-170.3,37.9-257ZM920.7,28.56c-.03-.26-.05-.51-.08-.77,29-3.48,57.01,23.24,62.5,50.44-10.79-27.38-32.2-47.18-62.41-49.67ZM594.46,119.74c13.66-19.65,33.09-26.13,33.09-26.13-14.43,9.74-20.98,17.55-28,28.17-6.61,10.01-16.96,26.35-16.96,39.56,0-19.33,7.62-35.49,11.87-41.61Z"/>
    <path class="cls-1" d="M461.98,1509.58s73.66-63.82,96.25-118.47-8.43-111.68-8.43-111.68c0,0,39.56,49.89,15.64,116.52-18.19,50.67-105.6,113.15-103.47,113.63Z"/>
    <path class="cls-1" d="M412.66,1144.51s-25.6-69.3-1.95-122.86c34.17-77.38,100.97-110.79,222.31-153.43,234.59-82.44,309-279.59,309-279.59,0,0-91.17,163.33-221.57,220.86-91.73,40.48-260.9,62.32-332.31,177.73-41.95,67.8,24.52,157.28,24.52,157.28Z"/>
    <path class="cls-1" d="M361.51,1166.31s-29.11-65.11-18.55-133.41c14.16-91.52,100.33-139.56,150.88-161.32,36.62-15.77,176.91-63.44,176.91-63.44,0,0-129.18,29.44-199.14,58.43-86.78,35.95-137.38,93.75-146.63,168.82-7.97,64.67,36.53,130.92,36.53,130.92Z"/>
  </g>
</svg>